<svg id="Layer_2" xmlns="http://www.w3.org/2000/svg" viewBox="0 0 1406.5 388.1"><style>.st0{fill:#8c2232}.st2{fill:#c32032}.st4{fill:#231f20}</style><path class="st0" d="M1011.3 208l-20-12.8v-25.6l-35.2-23.2c-3.2-1.6-5.6-2.4-6.4-1.6s-2.4 4-2.4 8V208c-.1 3.6.7 7.2 2.4 10.4 1.5 2.9 3.7 5.4 6.4 7.2l55.2 35.2V208z"/><path class="st0" d="M1011.3 288l-62.4-40c-7.3-4.9-13.3-11.5-17.6-19.2-4.2-7-6.4-15-6.4-23.2v-80c0-8 1.6-12.8 6.4-14.4 6.3-1.1 12.7.7 17.6 4.8l61.6 40V85.6L879.3 0v264.8l132 87.2v-64z"/><path d="M1011.3 260.8l-56-36c-2.3-1.7-4.3-3.9-5.6-6.4-1.7-3.2-2.5-6.8-2.4-10.4v-56c0-4 0-6.4 2.4-7.2s3.2 0 6.4 1.6l34.4 23.2v25.6l20 13.6V156l-61.6-40c-4.9-4.1-11.3-5.9-17.6-4.8-4.8 2.4-6.4 7.2-6.4 15.2v80c.2 7.9 2.4 15.6 6.4 22.4 4.3 7.7 10.3 14.3 17.6 19.2l61.6 40v-27.2h.8z" fill="#f2cd14"/><path class="st2" d="M1011.3 260.8l54.4-36c2.6-1.6 4.8-3.8 6.4-6.4 1.6-3.2 2.4-6.8 2.4-10.4v-56c0-4 0-6.4-2.4-7.2s-3.2 0-6.4 1.6l-34.4 23.2v25.6l-20 13.6v52z"/><path class="st2" d="M1011.3 85.6V156l61.6-40c4.9-4.1 11.3-5.9 17.6-4.8 4.8 1.6 6.4 6.4 6.4 14.4v80c.1 8.4-2.1 16.7-6.4 24-4.6 7.5-10.9 13.8-18.4 18.4l-61.6 40v64l132.8-85.6V0l-132 85.6z"/><path d="M1011.3 208l20-12.8v-25.6l34.4-23.2c3.2-1.6 5.6-2.4 6.4-1.6s2.4 4 2.4 8V208c0 3.6-.8 7.2-2.4 10.4-1.5 2.9-3.7 5.4-6.4 7.2l-54.4 35.2v26.4l61.6-40c7.2-4.7 13.2-11 17.6-18.4 4.2-7 6.4-15 6.4-23.2v-80c0-8-1.6-12.8-6.4-14.4-6.5-1.3-13.3.4-18.4 4.8l-61.6 40 .8 52z" fill="#fff"/><path class="st0" d="M1263.3 233.6c-3.2-1.8-5.9-4.2-8-7.2-1.9-2.2-3-5.1-3.2-8-.1-4.4 2-8.6 5.6-11.2 4.5-3 9.8-4.4 15.2-4 4.5-.2 8.9.9 12.8 3.2 3.1 2.2 4.9 5.8 4.8 9.6 0 5.3-4 10.4-12 15.2 4.9 1.9 9.3 4.9 12.8 8.8 1.8 2.9 2.6 6.2 2.4 9.6.1 5.1-2.3 9.9-6.4 12.8-4.7 3.3-10.3 5-16 4.8-5.6.4-11.2-1-16-4-3.8-2.8-5.9-7.3-5.6-12 0-7.2 4-12.8 13.6-17.6zm4 1.6c-5.4 3.1-8.5 9-8 15.2-.3 3.5.9 7 3.2 9.6 2.4 2.1 5.6 3.3 8.8 3.2 3.5.3 7-.9 9.6-3.2 2.2-2.1 3.3-5 3.2-8 0-3-1.1-5.9-3.2-8-4-3.4-8.6-6.1-13.6-8v-.8zm8-5.6c3.5-3 5.6-7.4 5.6-12 .3-2.9-.6-5.7-2.4-8-1.8-2.1-4.4-3.3-7.2-3.2-2.3.1-4.6.9-6.4 2.4-2.3 1.7-3.5 4.4-3.2 7.2 0 2.7 1.2 5.4 3.2 7.2 2.9 2.6 6.1 4.7 9.6 6.4h.8zm128-24c-8 1-15.5 4.3-21.6 9.6-4.6 4.9-7.7 11-8.8 17.6 3.6-4.2 8.9-6.5 14.4-6.4 5.1 0 10 2 13.6 5.6 3.9 3.7 5.9 9 5.6 14.4 0 5.5-2.3 10.7-6.4 14.4-4.1 3.8-9.6 5.9-15.2 5.6-6.1.1-12-2.6-16-7.2-4.3-5.2-6.5-11.7-6.4-18.4-.1-9.2 3.4-18.1 9.6-24.8 8.3-7.9 19-12.7 30.4-13.6l.8 3.2zm-6.4 43.2c.1-4.6-1.3-9.1-4-12.8-1.8-3.2-5.1-5.3-8.8-5.6-3.4-.1-6.6 1.4-8.8 4-2.3 3-3.5 6.7-3.2 10.4-.1 4.8 1.3 9.6 4 13.6 2.2 3.1 5.8 4.9 9.6 4.8 3.2.1 6.2-1.4 8-4 2.1-3 3.3-6.7 3.2-10.4zm-175.2 12l-1.6-2.4v-52.8l-16 3.2v3.2l8 1.6v45.6c0 .8 0 1.6-1.6 1.6l-6.4 2.4v3.2h24.8V264l-7.2-3.2zm130.4-56.8h-40.8v16.8h2.4l2.4-8.8h28.8l-25.6 53.6h8.8l3.2-8 3.2-9.6 4-10.4 4.8-10.4 4.8-11.2 4-10.4V204z"/><path class="st4" d="M157.7 128h-10.4l-16-38.4a78.8 78.8 0 0 0-23.2-3.2c-18-.7-35.1 7.7-45.6 22.4C50.6 126.2 44.7 147 45.7 168c-1.2 22.2 5.6 44 19.2 61.6 13.3 15.6 33.1 24.2 53.6 23.2 13.7-.3 27.2-3 40-8l1.6 8c-17.9 12.2-39.1 18.6-60.8 18.4-26.6 1.4-52.6-8.1-72-26.4C8.8 226.2-1.1 200.6.1 174.4c-1.2-27.8 9.9-54.8 30.4-73.6C52 82.2 79.7 72.5 108.1 73.6c16.4 0 32.8 1.9 48.8 5.6l.8 1.6V128zm98.4 126.4c-9.8 9.2-22.6 14.6-36 15.2-11.5.6-22.8-2.8-32-9.6-7.7-6.5-11.8-16.3-11.2-26.4-1.1-13.7 6.6-26.6 19.2-32 18.8-7.5 39-10.8 59.2-9.6v-9.6c.8-7.9-1.8-15.7-7.2-21.6-6.2-4.7-13.9-7-21.6-6.4-11.4.2-22.7 2.1-33.6 5.6l-4-11.2c17.5-8.3 36.6-12.6 56-12.8 13-.8 25.8 3.2 36 11.2 8.4 8.1 12.7 19.5 12 31.2v56c-.3 3.2-.3 6.4 0 9.6.3 3.3 1.7 6.4 4 8.8 4.4 3.2 9.7 5.2 15.2 5.6v7.2h-32.8c-9.1.4-17.8-3.8-23.2-11.2zm-.8-48.8c-10.4-1-20.8.7-30.4 4.8-6.3 4.2-9.8 11.6-8.8 19.2-.3 6 2.1 11.8 6.4 16 4.3 3.6 9.6 5.6 15.2 5.6 6.2.3 12.4-1.4 17.6-4.8v-40.8zM580.1 96.8v29.6l38.4-24V72l-38.4 24.8zM579.3 156.8v93.6c0 1.9-1.3 3.6-3.2 4l-16 4.8v6.4h79.2v-6.4l-17.6-4.8c-1.7-.6-3-2.2-3.2-4V132l-39.2 24.8zm-195.2 93.6V48l-39.2 24.8v176.8c.1 2.1-1.2 4.1-3.2 4.8l-16.8 4.8v6.4h80v-6.4l-17.6-4.8c-1.9-.4-3.2-2.1-3.2-4zm417.6 4c-2.1-.3-3.7-1.9-4-4V176c.5-11-3.6-21.7-11.2-29.6-8.5-7.7-19.7-11.8-31.2-11.2-16.1.5-31.7 5.8-44.8 15.2v-12h-59.2v6.4h.8l16 4.8c1.9 0 3.6 1.3 4 3.2v96c0 1.9-1.3 3.6-3.2 4l-17.6 4.8v6.4h76.8v-6.4l-14.4-4c-2.2-.4-3.6-2.5-3.2-4.6v-88.2c7.3-4.2 15.6-6.4 24-6.4 6.9-.4 13.6 2.3 18.4 7.2 5.3 6.8 7.8 15.4 7.2 24v64.8c-.3 2.1-1.9 3.7-4 4l-12.8 4v6.4h75.2v-6.4l-16.8-4zM506.5 139.2v6.4l14.4 4c-9 24.7-18.3 49.2-28 73.6l-6.4-17.6-20.8-56 14.4-4v-6.4h-72.8v6.4l13.6 4c2.6 1.3 4.6 3.6 5.6 6.4l44.8 109.6h18.4c15-37 30.5-73.8 46.4-110.4.7-2.5 2.5-4.5 4.8-5.6l14.4-4v-6.4h-48.8zm-328 221.6v-35.2h10.4V360c0 12 6.4 17.6 16 17.6s16-5.6 16-16v-36h10.4V360c0 18.4-10.4 28-26.4 28-13.2 1.5-25-8-26.5-21.2-.2-2-.2-4 .1-6zm77.6-35.2h10.4l32 42.4v-42.4h11.2v61.6h-8.8l-34.4-44v44h-10.4v-61.6zm80.8 0h10.4v61.6h-11.2l.8-61.6zm32 0h12l18.4 47.2 18.4-48h12l-25.6 62.4h-9.6l-25.6-61.6zm81.6 0h45.6v9.6h-35.2v16h31.2v8.8h-31.2v16h35.2v10.4h-45.6v-60.8zm68.8 0h28c6.4-.5 12.7 1.5 17.6 5.6 3.3 3.7 5 8.6 4.8 13.6.2 8.8-5.8 16.5-14.4 18.4l16 24h-12l-16-21.6h-12.8v21.6h-11.2v-61.6zm27.2 30.4c8 0 12.8-4 12.8-10.4s-4.8-10.4-12.8-10.4h-16V356h16zm43.2 22.4l6.4-8c5.2 5 12 7.8 19.2 8 7.2 0 11.2-3.2 11.2-8s-2.4-7.2-13.6-9.6c-13.6-3.2-20.8-8-20.8-18.4.4-10.6 9.3-18.9 19.9-18.5.3 0 .6 0 .9.1 8.2-.1 16.1 2.8 22.4 8l-5.6 8c-4.5-3.8-10.1-6-16-6.4-7.2 0-10.4 3.2-10.4 8 0 4 2.4 6.4 14.4 9.6 12.8 2.4 20 8 20 17.6 0 12-9.6 18.4-22.4 18.4-9.4 0-18.5-3.4-25.6-9.6v.8zm71.2-52.8h10.4v61.6h-9.6l-.8-61.6zm52.8 10.4h-20v-10.4h50.4v9.6h-20v52h-10.4V336zm69.6 26.4l-24-36.8h12.8l16.8 27.2 17.6-27.2h12.8l-24.8 36.8v24h-11.2v-24z"/></svg>